<mxfile host="app.diagrams.net" modified="2024-04-24T05:59:51.151Z" agent="Mozilla/5.0 (Windows NT 10.0; Win64; x64) AppleWebKit/537.36 (KHTML, like Gecko) Chrome/124.0.0.0 Safari/537.36" etag="TiuKBKQFtYYzTxsxz3JQ" version="24.2.8" type="github">
  <diagram name="Page-1" id="Q4xjp02sZWljuH2n2weU">
    <mxGraphModel dx="1900" dy="557" grid="1" gridSize="10" guides="1" tooltips="1" connect="1" arrows="1" fold="1" page="1" pageScale="1" pageWidth="850" pageHeight="1100" math="0" shadow="0">
      <root>
        <mxCell id="0" />
        <mxCell id="1" parent="0" />
        <mxCell id="R3oXK7UK5edtn_iwWxS8-7" value="Load Balancer" style="rounded=1;whiteSpace=wrap;html=1;dashed=1;comic=0;enumerate=0;shadow=0;" parent="1" vertex="1">
          <mxGeometry x="205" y="184" width="120" height="30" as="geometry" />
        </mxCell>
        <mxCell id="R3oXK7UK5edtn_iwWxS8-8" value="CDN" style="rounded=1;whiteSpace=wrap;html=1;" parent="1" vertex="1">
          <mxGeometry x="200" y="131" width="120" height="30" as="geometry" />
        </mxCell>
        <mxCell id="R3oXK7UK5edtn_iwWxS8-10" value="" style="shape=actor;whiteSpace=wrap;html=1;dashed=1;comic=0;enumerate=0;shadow=0;" parent="1" vertex="1">
          <mxGeometry x="-60" y="135" width="60" height="60" as="geometry" />
        </mxCell>
        <mxCell id="R3oXK7UK5edtn_iwWxS8-11" value="Blogger" style="text;html=1;align=center;verticalAlign=middle;whiteSpace=wrap;rounded=0;dashed=1;comic=0;enumerate=0;shadow=0;" parent="1" vertex="1">
          <mxGeometry x="-60" y="205" width="60" height="30" as="geometry" />
        </mxCell>
        <mxCell id="R3oXK7UK5edtn_iwWxS8-12" value="" style="endArrow=none;html=1;rounded=0;dashed=1;comic=0;enumerate=0;shadow=0;entryX=0;entryY=0.5;entryDx=0;entryDy=0;startArrow=classic;startFill=1;flowAnimation=1;endFill=0;" parent="1" target="R3oXK7UK5edtn_iwWxS8-8" edge="1">
          <mxGeometry width="50" height="50" relative="1" as="geometry">
            <mxPoint x="10" y="175" as="sourcePoint" />
            <mxPoint x="170" y="95" as="targetPoint" />
          </mxGeometry>
        </mxCell>
        <mxCell id="R3oXK7UK5edtn_iwWxS8-14" value="" style="endArrow=classic;html=1;rounded=0;dashed=1;comic=0;enumerate=0;shadow=0;flowAnimation=1;" parent="1" edge="1">
          <mxGeometry width="50" height="50" relative="1" as="geometry">
            <mxPoint x="320" y="148.5" as="sourcePoint" />
            <mxPoint x="390" y="148.5" as="targetPoint" />
          </mxGeometry>
        </mxCell>
        <mxCell id="R3oXK7UK5edtn_iwWxS8-15" value="Static Contents" style="rounded=0;whiteSpace=wrap;html=1;dashed=1;comic=0;enumerate=0;shadow=0;" parent="1" vertex="1">
          <mxGeometry x="390" y="130" width="120" height="30" as="geometry" />
        </mxCell>
        <mxCell id="R3oXK7UK5edtn_iwWxS8-16" value="" style="endArrow=classic;html=1;rounded=0;dashed=1;comic=0;enumerate=0;shadow=0;endFill=1;startArrow=classic;startFill=1;flowAnimation=1;" parent="1" edge="1">
          <mxGeometry width="50" height="50" relative="1" as="geometry">
            <mxPoint x="10" y="180" as="sourcePoint" />
            <mxPoint x="200" y="200" as="targetPoint" />
          </mxGeometry>
        </mxCell>
        <mxCell id="R3oXK7UK5edtn_iwWxS8-20" value="Metadata" style="rounded=1;whiteSpace=wrap;html=1;dashed=1;comic=0;enumerate=0;shadow=0;" parent="1" vertex="1">
          <mxGeometry x="205" y="350" width="120" height="40" as="geometry" />
        </mxCell>
        <mxCell id="R3oXK7UK5edtn_iwWxS8-22" value="Notification Service" style="rounded=1;whiteSpace=wrap;html=1;dashed=1;comic=0;enumerate=0;shadow=0;" parent="1" vertex="1">
          <mxGeometry x="-180" y="290" width="120" height="40" as="geometry" />
        </mxCell>
        <mxCell id="R3oXK7UK5edtn_iwWxS8-26" value="" style="shape=actor;whiteSpace=wrap;html=1;dashed=1;comic=0;enumerate=0;shadow=0;" parent="1" vertex="1">
          <mxGeometry x="-280" y="270" width="60" height="60" as="geometry" />
        </mxCell>
        <mxCell id="R3oXK7UK5edtn_iwWxS8-28" value="" style="endArrow=none;html=1;rounded=0;dashed=1;comic=0;enumerate=0;shadow=0;startArrow=classic;startFill=1;" parent="1" edge="1">
          <mxGeometry width="50" height="50" relative="1" as="geometry">
            <mxPoint x="-215" y="309.5" as="sourcePoint" />
            <mxPoint x="-185" y="309.5" as="targetPoint" />
          </mxGeometry>
        </mxCell>
        <mxCell id="R3oXK7UK5edtn_iwWxS8-31" value="Content Publisher" style="rounded=1;whiteSpace=wrap;html=1;dashed=1;comic=0;enumerate=0;shadow=0;" parent="1" vertex="1">
          <mxGeometry x="-60" y="460" width="120" height="40" as="geometry" />
        </mxCell>
        <mxCell id="R3oXK7UK5edtn_iwWxS8-32" value="" style="endArrow=classic;html=1;rounded=0;dashed=1;comic=0;enumerate=0;shadow=0;entryX=0.5;entryY=0;entryDx=0;entryDy=0;entryPerimeter=0;" parent="1" target="R3oXK7UK5edtn_iwWxS8-29" edge="1">
          <mxGeometry width="50" height="50" relative="1" as="geometry">
            <mxPoint x="-60" y="490" as="sourcePoint" />
            <mxPoint x="100" y="430" as="targetPoint" />
          </mxGeometry>
        </mxCell>
        <mxCell id="R3oXK7UK5edtn_iwWxS8-34" value="BlogService" style="rounded=1;whiteSpace=wrap;html=1;dashed=1;comic=0;enumerate=0;shadow=0;" parent="1" vertex="1">
          <mxGeometry x="100" y="460" width="120" height="40" as="geometry" />
        </mxCell>
        <mxCell id="R3oXK7UK5edtn_iwWxS8-35" value="" style="endArrow=classic;html=1;rounded=0;dashed=1;comic=0;enumerate=0;shadow=0;exitX=0.25;exitY=1;exitDx=0;exitDy=0;entryX=0.75;entryY=0;entryDx=0;entryDy=0;flowAnimation=1;" parent="1" source="R3oXK7UK5edtn_iwWxS8-20" target="R3oXK7UK5edtn_iwWxS8-34" edge="1">
          <mxGeometry width="50" height="50" relative="1" as="geometry">
            <mxPoint x="320" y="420" as="sourcePoint" />
            <mxPoint x="180" y="530" as="targetPoint" />
          </mxGeometry>
        </mxCell>
        <mxCell id="R3oXK7UK5edtn_iwWxS8-36" value="Streaming Service" style="rounded=1;whiteSpace=wrap;html=1;dashed=1;comic=0;enumerate=0;shadow=0;" parent="1" vertex="1">
          <mxGeometry x="285" y="460" width="120" height="40" as="geometry" />
        </mxCell>
        <mxCell id="R3oXK7UK5edtn_iwWxS8-38" value="" style="endArrow=classic;html=1;rounded=0;dashed=1;comic=0;enumerate=0;shadow=0;flowAnimation=1;" parent="1" edge="1">
          <mxGeometry width="50" height="50" relative="1" as="geometry">
            <mxPoint x="345" y="500" as="sourcePoint" />
            <mxPoint x="345" y="560" as="targetPoint" />
          </mxGeometry>
        </mxCell>
        <mxCell id="R3oXK7UK5edtn_iwWxS8-39" value="" style="endArrow=classic;html=1;rounded=0;exitX=0.75;exitY=1;exitDx=0;exitDy=0;dashed=1;comic=0;enumerate=0;shadow=0;entryX=0.447;entryY=-0.033;entryDx=0;entryDy=0;entryPerimeter=0;flowAnimation=1;" parent="1" source="R3oXK7UK5edtn_iwWxS8-20" target="R3oXK7UK5edtn_iwWxS8-36" edge="1">
          <mxGeometry width="50" height="50" relative="1" as="geometry">
            <mxPoint x="320" y="420" as="sourcePoint" />
            <mxPoint x="470" y="530" as="targetPoint" />
          </mxGeometry>
        </mxCell>
        <mxCell id="R3oXK7UK5edtn_iwWxS8-46" value="RDBMS" style="shape=cylinder3;whiteSpace=wrap;html=1;boundedLbl=1;backgroundOutline=1;size=15;dashed=1;comic=0;enumerate=0;shadow=0;" parent="1" vertex="1">
          <mxGeometry x="480" y="542" width="80" height="60" as="geometry" />
        </mxCell>
        <mxCell id="R3oXK7UK5edtn_iwWxS8-48" value="RegistrationService" style="rounded=1;whiteSpace=wrap;html=1;dashed=1;comic=0;enumerate=0;shadow=0;" parent="1" vertex="1">
          <mxGeometry x="460" y="460" width="120" height="40" as="geometry" />
        </mxCell>
        <mxCell id="R3oXK7UK5edtn_iwWxS8-49" value="" style="endArrow=classic;html=1;rounded=0;entryX=0.5;entryY=0;entryDx=0;entryDy=0;endFill=1;dashed=1;comic=0;enumerate=0;shadow=0;flowAnimation=1;snapToPoint=0;edgeStyle=orthogonalEdgeStyle;curved=1;" parent="1" target="R3oXK7UK5edtn_iwWxS8-48" edge="1">
          <mxGeometry width="50" height="50" relative="1" as="geometry">
            <mxPoint x="330" y="370" as="sourcePoint" />
            <mxPoint x="519.5999999999999" y="499.82000000000005" as="targetPoint" />
          </mxGeometry>
        </mxCell>
        <mxCell id="R3oXK7UK5edtn_iwWxS8-57" value="Agreegator Service" style="rounded=1;whiteSpace=wrap;html=1;dashed=1;comic=0;enumerate=0;shadow=0;" parent="1" vertex="1">
          <mxGeometry x="-180" y="370" width="120" height="40" as="geometry" />
        </mxCell>
        <mxCell id="R3oXK7UK5edtn_iwWxS8-58" value="" style="endArrow=none;html=1;rounded=0;entryX=0;entryY=0;entryDx=0;entryDy=35;entryPerimeter=0;dashed=1;comic=0;enumerate=0;shadow=0;exitX=0.44;exitY=1.053;exitDx=0;exitDy=0;exitPerimeter=0;startArrow=classic;startFill=1;flowAnimation=1;" parent="1" source="R3oXK7UK5edtn_iwWxS8-57" target="R3oXK7UK5edtn_iwWxS8-29" edge="1">
          <mxGeometry width="50" height="50" relative="1" as="geometry">
            <mxPoint x="-60" y="410" as="sourcePoint" />
            <mxPoint x="-10" y="360" as="targetPoint" />
          </mxGeometry>
        </mxCell>
        <mxCell id="R3oXK7UK5edtn_iwWxS8-59" value="" style="endArrow=classic;html=1;rounded=0;exitX=0.5;exitY=0;exitDx=0;exitDy=0;entryX=0.5;entryY=1;entryDx=0;entryDy=0;endFill=1;startArrow=classic;startFill=1;dashed=1;comic=0;enumerate=0;shadow=0;flowAnimation=1;" parent="1" source="R3oXK7UK5edtn_iwWxS8-57" target="R3oXK7UK5edtn_iwWxS8-22" edge="1">
          <mxGeometry width="50" height="50" relative="1" as="geometry">
            <mxPoint x="-160" y="390" as="sourcePoint" />
            <mxPoint x="-110" y="340" as="targetPoint" />
          </mxGeometry>
        </mxCell>
        <mxCell id="8LPicCcMpKP0tmVZr9_w-5" value="" style="group" parent="1" vertex="1" connectable="0">
          <mxGeometry x="-470" y="20" width="330" height="130" as="geometry" />
        </mxCell>
        <mxCell id="8LPicCcMpKP0tmVZr9_w-3" value="" style="rounded=0;whiteSpace=wrap;html=1;" parent="8LPicCcMpKP0tmVZr9_w-5" vertex="1">
          <mxGeometry width="320" height="130" as="geometry" />
        </mxCell>
        <mxCell id="R3oXK7UK5edtn_iwWxS8-1" value="&lt;br&gt;&lt;span style=&quot;background-color: initial;&quot;&gt;&amp;nbsp;1. Blogger Registered&lt;/span&gt;&lt;br&gt;&lt;span style=&quot;background-color: initial;&quot;&gt;&amp;nbsp;2. Blogger Publish contents&lt;/span&gt;&lt;br&gt;&lt;span style=&quot;background-color: initial;&quot;&gt;&amp;nbsp;3&amp;nbsp; Schedule the publishing of contents&lt;/span&gt;" style="text;html=1;align=left;verticalAlign=middle;whiteSpace=wrap;rounded=0;" parent="8LPicCcMpKP0tmVZr9_w-5" vertex="1">
          <mxGeometry x="4.646052631578947" y="30" width="273.24868421052633" height="50" as="geometry" />
        </mxCell>
        <mxCell id="R3oXK7UK5edtn_iwWxS8-2" value="&amp;nbsp;2 Channel for the contnts to be pusblihed to Subscribers" style="text;html=1;align=left;verticalAlign=middle;whiteSpace=wrap;rounded=0;" parent="8LPicCcMpKP0tmVZr9_w-5" vertex="1">
          <mxGeometry x="4.65" y="90" width="305.35" height="30" as="geometry" />
        </mxCell>
        <mxCell id="8LPicCcMpKP0tmVZr9_w-4" value="&amp;nbsp;Requirementss" style="text;html=1;align=center;verticalAlign=middle;whiteSpace=wrap;rounded=0;" parent="8LPicCcMpKP0tmVZr9_w-5" vertex="1">
          <mxGeometry x="13.014084507042252" width="55.77464788732394" height="30" as="geometry" />
        </mxCell>
        <mxCell id="8LPicCcMpKP0tmVZr9_w-7" value="" style="group;dashed=1;comic=0;enumerate=0;shadow=0;" parent="1" vertex="1" connectable="0">
          <mxGeometry x="-240" y="460" width="110" height="60" as="geometry" />
        </mxCell>
        <mxCell id="R3oXK7UK5edtn_iwWxS8-29" value="" style="shape=cylinder3;whiteSpace=wrap;html=1;boundedLbl=1;backgroundOutline=1;size=15;rotation=90;dashed=1;comic=0;enumerate=0;shadow=0;" parent="8LPicCcMpKP0tmVZr9_w-7" vertex="1">
          <mxGeometry x="25" y="-25" width="60" height="110" as="geometry" />
        </mxCell>
        <mxCell id="8LPicCcMpKP0tmVZr9_w-6" value="Kafka [Topics]" style="text;html=1;align=center;verticalAlign=middle;whiteSpace=wrap;rounded=0;dashed=1;comic=0;enumerate=0;shadow=0;" parent="8LPicCcMpKP0tmVZr9_w-7" vertex="1">
          <mxGeometry x="15" y="15" width="60" height="30" as="geometry" />
        </mxCell>
        <mxCell id="8LPicCcMpKP0tmVZr9_w-8" value="" style="group;dashed=1;comic=0;enumerate=0;shadow=0;" parent="1" vertex="1" connectable="0">
          <mxGeometry x="280" y="562" width="125" height="59.7" as="geometry" />
        </mxCell>
        <mxCell id="8LPicCcMpKP0tmVZr9_w-9" value="" style="shape=cylinder3;whiteSpace=wrap;html=1;boundedLbl=1;backgroundOutline=1;size=15;rotation=90;dashed=1;comic=0;enumerate=0;shadow=0;" parent="8LPicCcMpKP0tmVZr9_w-8" vertex="1">
          <mxGeometry x="36.7" y="-28.3" width="51.59" height="88" as="geometry" />
        </mxCell>
        <mxCell id="8LPicCcMpKP0tmVZr9_w-10" value="Kafka [Topics]" style="text;html=1;align=center;verticalAlign=middle;whiteSpace=wrap;rounded=0;dashed=1;comic=0;enumerate=0;shadow=0;" parent="8LPicCcMpKP0tmVZr9_w-8" vertex="1">
          <mxGeometry x="17.045454545454547" y="1" width="68.18181818181819" height="24" as="geometry" />
        </mxCell>
        <mxCell id="8LPicCcMpKP0tmVZr9_w-11" value="No SQL" style="shape=cylinder3;whiteSpace=wrap;html=1;boundedLbl=1;backgroundOutline=1;size=15;dashed=1;comic=0;enumerate=0;shadow=0;" parent="1" vertex="1">
          <mxGeometry x="125" y="550" width="80" height="58" as="geometry" />
        </mxCell>
        <mxCell id="8LPicCcMpKP0tmVZr9_w-12" value="" style="endArrow=classic;html=1;rounded=0;dashed=1;comic=0;enumerate=0;shadow=0;flowAnimation=1;" parent="1" edge="1">
          <mxGeometry width="50" height="50" relative="1" as="geometry">
            <mxPoint x="160" y="500" as="sourcePoint" />
            <mxPoint x="159.5" y="552" as="targetPoint" />
          </mxGeometry>
        </mxCell>
        <mxCell id="8LPicCcMpKP0tmVZr9_w-14" value="" style="endArrow=classic;html=1;rounded=0;dashed=1;comic=0;enumerate=0;shadow=0;flowAnimation=1;" parent="1" edge="1">
          <mxGeometry width="50" height="50" relative="1" as="geometry">
            <mxPoint x="520" y="502" as="sourcePoint" />
            <mxPoint x="520" y="540" as="targetPoint" />
          </mxGeometry>
        </mxCell>
        <mxCell id="8LPicCcMpKP0tmVZr9_w-18" value="" style="endArrow=classic;html=1;rounded=0;exitX=0;exitY=0.5;exitDx=0;exitDy=0;endFill=1;dashed=1;comic=0;enumerate=0;shadow=0;flowAnimation=1;snapToPoint=0;edgeStyle=orthogonalEdgeStyle;curved=1;" parent="1" source="R3oXK7UK5edtn_iwWxS8-20" target="R3oXK7UK5edtn_iwWxS8-31" edge="1">
          <mxGeometry width="50" height="50" relative="1" as="geometry">
            <mxPoint x="200" y="410" as="sourcePoint" />
            <mxPoint x="410" y="530" as="targetPoint" />
          </mxGeometry>
        </mxCell>
        <mxCell id="8LPicCcMpKP0tmVZr9_w-23" value="" style="endArrow=classic;html=1;rounded=0;curved=0;dashed=1;flowAnimation=1;" parent="1" edge="1">
          <mxGeometry width="50" height="50" relative="1" as="geometry">
            <mxPoint x="259.5" y="313.5" as="sourcePoint" />
            <mxPoint x="260" y="350" as="targetPoint" />
          </mxGeometry>
        </mxCell>
        <mxCell id="8LPicCcMpKP0tmVZr9_w-24" value="" style="endArrow=classic;html=1;rounded=0;curved=0;dashed=1;flowAnimation=1;" parent="1" edge="1">
          <mxGeometry width="50" height="50" relative="1" as="geometry">
            <mxPoint x="264" y="214" as="sourcePoint" />
            <mxPoint x="263.57" y="254" as="targetPoint" />
          </mxGeometry>
        </mxCell>
        <mxCell id="8LPicCcMpKP0tmVZr9_w-21" value="" style="rounded=1;whiteSpace=wrap;html=1;" parent="1" vertex="1">
          <mxGeometry x="110" y="253.5" width="310" height="60" as="geometry" />
        </mxCell>
        <mxCell id="R3oXK7UK5edtn_iwWxS8-17" value="API&amp;nbsp; Gateway" style="rounded=1;whiteSpace=wrap;html=1;dashed=1;comic=0;enumerate=0;shadow=0;" parent="1" vertex="1">
          <mxGeometry x="280" y="264.5" width="120" height="33" as="geometry" />
        </mxCell>
        <mxCell id="8LPicCcMpKP0tmVZr9_w-20" value="API&amp;nbsp; Gateway" style="rounded=1;whiteSpace=wrap;html=1;dashed=1;comic=0;enumerate=0;shadow=0;" parent="1" vertex="1">
          <mxGeometry x="130" y="264.5" width="120" height="33" as="geometry" />
        </mxCell>
      </root>
    </mxGraphModel>
  </diagram>
</mxfile>
